<svg width="370" height="370" xmlns="http://www.w3.org/2000/svg">

 <g>
  <title>background</title>
  <rect fill="none" id="canvas_background" height="372" width="372" y="-1" x="-1"/>
 </g>
 <g>
  <title>Layer 1</title>
  <g id="svg_17">
   <path id="svg_2" fill-rule="nonzero" d="m188.07465,23.48455c83.64765,0 151.95155,66.86536 153.73185,150.49405c1.78023,83.62873 -63.61625,153.34025 -147.18815,156.89997l-6.5437,-153.62735l0,-153.76667z" fill="#4285f4"/>
   <path id="svg_3" fill-rule="nonzero" d="m61.4001,84.84398c28.9973,-39.1818 74.85509,-62.29398 123.5999,-62.29398l0,153.76667l-123.5999,-91.47269z" fill="#ff6d01"/>
   <path id="svg_4" fill-rule="nonzero" d="m33.72339,148.7563c4.21586,-23.14053 13.68428,-45.00545 27.67671,-63.91232l123.5999,91.47269l-151.27661,-27.56037z" fill="#34a853"/>
   <path id="svg_5" fill-rule="nonzero" d="m71.66818,280.24014c-32.52908,-35.474 -46.57147,-84.13275 -37.94479,-131.48384l151.27661,27.56037l-113.33182,103.92347z" fill="#fbbc04"/>
   <path id="svg_6" fill-rule="nonzero" d="m191.54373,329.94403c-45.33493,1.93103 -89.20808,-16.26003 -119.87555,-49.70389l113.33182,-103.92347l6.54373,153.62736z" fill="#ea4335"/>
   <path id="svg_7" fill-rule="nonzero" d="m31.5,349.45c0,3.3137 -2.6863,6 -6,6c-3.3137,0 -6,-2.6863 -6,-6c0,-3.3137 2.6863,-6 6,-6c3.3137,0 6,2.6863 6,6z" fill="#4285f4"/>
   <path id="svg_8" fill-rule="nonzero" d="m39.875,351.59064l1.03125,-0.15624q0.09375,0.625 0.48437,0.9531q0.40626,0.32814 1.14063,0.32814q0.71875,0 1.0625,-0.28124q0.35937,-0.2969 0.35937,-0.70314q0,-0.35936 -0.3125,-0.5625q-0.21874,-0.14062 -1.07812,-0.35936q-1.15625,-0.2969 -1.60938,-0.5q-0.4375,-0.21876 -0.67187,-0.59376q-0.23437,-0.375 -0.23437,-0.84374q0,-0.40626 0.1875,-0.76564q0.1875,-0.35936 0.51562,-0.59376q0.25,-0.17186 0.67188,-0.29686q0.42187,-0.125 0.92187,-0.125q0.71875,0 1.26563,0.21876q0.5625,0.2031 0.82812,0.5625q0.26562,0.35936 0.35938,0.9531l-1.03126,0.14064q-0.0625,-0.46874 -0.40624,-0.73438q-0.32813,-0.28126 -0.95313,-0.28126q-0.71875,0 -1.03125,0.25q-0.3125,0.2344 -0.3125,0.5625q0,0.20314 0.125,0.3594q0.14062,0.17186 0.40625,0.28124q0.15625,0.0625 0.9375,0.26562q1.125,0.3125 1.5625,0.5q0.4375,0.1875 0.6875,0.54688q0.25,0.35936 0.25,0.90626q0,0.53124 -0.3125,1q-0.29687,0.4531 -0.875,0.71874q-0.57813,0.25 -1.3125,0.25q-1.21875,0 -1.85937,-0.5q-0.625,-0.51564 -0.79688,-1.5zm6.42188,4.25l0,-8.60938l0.95312,0l0,0.79688q0.34375,-0.46874 0.76562,-0.70314q0.4375,-0.23436 1.04688,-0.23436q0.79688,0 1.40625,0.40626q0.60937,0.40624 0.90625,1.15624q0.3125,0.75 0.3125,1.64062q0,0.95314 -0.34375,1.71874q-0.32813,0.76564 -0.98437,1.1719q-0.65626,0.40624 -1.375,0.40624q-0.53126,0 -0.95313,-0.21874q-0.42187,-0.2344 -0.6875,-0.5625l0,3.03124l-1.04687,0zm0.95312,-5.46874q0,1.2031 0.48438,1.78124q0.48437,0.5625 1.17187,0.5625q0.70313,0 1.20313,-0.59374q0.5,-0.59376 0.5,-1.84376q0,-1.1875 -0.48438,-1.76564q-0.48438,-0.59374 -1.17188,-0.59374q-0.67187,0 -1.1875,0.625q-0.51562,0.625 -0.51562,1.82814zm10.10938,2.3125q-0.59376,0.5 -1.14063,0.7031q-0.53125,0.20314 -1.15625,0.20314q-1.03125,0 -1.57812,-0.5q-0.54688,-0.5 -0.54688,-1.28124q0,-0.45314 0.20312,-0.82814q0.20313,-0.39062 0.54688,-0.60936q0.34375,-0.2344 0.76562,-0.34376q0.29688,-0.09374 0.9375,-0.17188q1.26563,-0.14062 1.875,-0.35936q0,-0.21876 0,-0.26564q0,-0.65626 -0.29687,-0.92186q-0.40625,-0.34376 -1.20313,-0.34376q-0.73437,0 -1.09374,0.26562q-0.35938,0.25 -0.53126,0.90624l-1.03124,-0.1406q0.14062,-0.65626 0.46874,-1.0625q0.32813,-0.40626 0.9375,-0.625q0.60938,-0.21876 1.40626,-0.21876q0.79687,0 1.29687,0.1875q0.5,0.1875 0.73437,0.46876q0.23438,0.28124 0.32813,0.71874q0.04687,0.26562 0.04687,0.96876l0,1.40624q0,1.46876 0.0625,1.85936q0.07813,0.39064 0.28126,0.75l-1.10938,0q-0.15625,-0.3281 -0.20312,-0.7656zm-0.09376,-2.3594q-0.57812,0.2344 -1.71874,0.40626q-0.65626,0.09374 -0.92188,0.21874q-0.26562,0.1094 -0.42188,0.32814q-0.14062,0.21876 -0.14062,0.5q0,0.42186 0.3125,0.70312q0.32812,0.28124 0.9375,0.28124q0.60938,0 1.07812,-0.2656q0.48438,-0.26564 0.70313,-0.7344q0.17187,-0.35936 0.17187,-1.04686l0,-0.39064zm3.03126,3.125l0,-6.21874l0.9375,0l0,0.875q0.29687,-0.46876 0.78124,-0.73436q0.48438,-0.28126 1.10938,-0.28126q0.6875,0 1.125,0.28126q0.45312,0.28124 0.625,0.79686q0.75,-1.07812 1.92188,-1.07812q0.9375,0 1.42187,0.51562q0.5,0.5 0.5,1.57814l0,4.2656l-1.04687,0l0,-3.92186q0,-0.625 -0.10938,-0.90624q-0.09375,-0.28126 -0.35938,-0.45314q-0.26562,-0.17186 -0.64062,-0.17186q-0.65625,0 -1.09375,0.4375q-0.42187,0.4375 -0.42187,1.40624l0,3.60936l-1.0625,0l0,-4.04686q0,-0.70314 -0.26563,-1.04688q-0.25,-0.35936 -0.82813,-0.35936q-0.45312,0 -0.82812,0.23436q-0.375,0.23438 -0.54688,0.6875q-0.17187,0.45314 -0.17187,1.29688l0,3.23436l-1.04687,0z" fill="#1a1a1a"/>
   <path id="svg_9" fill-rule="nonzero" d="m97.5,349.45c0,3.3137 -2.6863,6 -6,6c-3.3137,0 -6,-2.6863 -6,-6c0,-3.3137 2.6863,-6 6,-6c3.3137,0 6,2.6863 6,6z" fill="#ea4335"/>
   <path id="svg_10" fill-rule="nonzero" d="m108.59375,352.5125l0.15625,0.9219q-0.45312,0.09374 -0.79688,0.09374q-0.57812,0 -0.89062,-0.17188q-0.3125,-0.1875 -0.45312,-0.48436q-0.125,-0.2969 -0.125,-1.25l0,-3.57814l-0.76563,0l0,-0.8125l0.76563,0l0,-1.54686l1.04687,-0.625l0,2.17186l1.0625,0l0,0.8125l-1.0625,0l0,3.64064q0,0.4531 0.04687,0.5781q0.0625,0.125 0.1875,0.20314q0.125,0.07812 0.35938,0.07812q0.1875,0 0.46875,-0.03126zm0.6875,0.9375l0,-6.21874l0.95313,0l0,0.9375q0.35937,-0.65626 0.65624,-0.85936q0.3125,-0.21876 0.6875,-0.21876q0.53126,0 1.07813,0.32812l-0.35937,0.98438q-0.39063,-0.23438 -0.76563,-0.23438q-0.35937,0 -0.64063,0.21874q-0.26562,0.20314 -0.375,0.57814q-0.1875,0.5625 -0.1875,1.21876l0,3.2656l-1.04687,0zm8.07813,-0.7656q-0.59376,0.5 -1.14063,0.7031q-0.53125,0.20314 -1.15625,0.20314q-1.03125,0 -1.57812,-0.5q-0.54688,-0.5 -0.54688,-1.28124q0,-0.45314 0.20312,-0.82814q0.20313,-0.39062 0.54688,-0.60936q0.34375,-0.2344 0.76562,-0.34376q0.29688,-0.09374 0.9375,-0.17188q1.26563,-0.14062 1.875,-0.35936q0,-0.21876 0,-0.26564q0,-0.65626 -0.29687,-0.92186q-0.40625,-0.34376 -1.20313,-0.34376q-0.73437,0 -1.09374,0.26562q-0.35938,0.25 -0.53126,0.90624l-1.03124,-0.1406q0.14062,-0.65626 0.46874,-1.0625q0.32813,-0.40626 0.9375,-0.625q0.60938,-0.21876 1.40626,-0.21876q0.79687,0 1.29687,0.1875q0.5,0.1875 0.73437,0.46876q0.23438,0.28124 0.32813,0.71874q0.04687,0.26562 0.04687,0.96876l0,1.40624q0,1.46876 0.0625,1.85936q0.07813,0.39064 0.28126,0.75l-1.10938,0q-0.15625,-0.3281 -0.20312,-0.7656zm-0.09376,-2.3594q-0.57812,0.2344 -1.71874,0.40626q-0.65626,0.09374 -0.92188,0.21874q-0.26562,0.1094 -0.42188,0.32814q-0.14062,0.21876 -0.14062,0.5q0,0.42186 0.3125,0.70312q0.32812,0.28124 0.9375,0.28124q0.60938,0 1.07812,-0.2656q0.48438,-0.26564 0.70313,-0.7344q0.17187,-0.35936 0.17187,-1.04686l0,-0.39064zm3.03126,3.125l0,-6.21874l0.9375,0l0,0.875q0.6875,-1.01562 1.98437,-1.01562q0.5625,0 1.03125,0.20312q0.48438,0.20314 0.71875,0.53124q0.23437,0.32814 0.32813,0.76564q0.04687,0.29686 0.04687,1.03126l0,3.8281l-1.04687,0l0,-3.78124q0,-0.65626 -0.125,-0.96876q-0.125,-0.3125 -0.4375,-0.5q-0.3125,-0.2031 -0.73438,-0.2031q-0.67188,0 -1.17188,0.4375q-0.48437,0.42186 -0.48437,1.60936l0,3.40624l-1.04687,0zm6.57812,-1.85936l1.03125,-0.15624q0.09375,0.625 0.48437,0.9531q0.40626,0.32814 1.14063,0.32814q0.71875,0 1.0625,-0.28124q0.35937,-0.2969 0.35937,-0.70314q0,-0.35936 -0.3125,-0.5625q-0.21874,-0.14062 -1.07812,-0.35936q-1.15625,-0.2969 -1.60938,-0.5q-0.4375,-0.21876 -0.67187,-0.59376q-0.23437,-0.375 -0.23437,-0.84374q0,-0.40626 0.1875,-0.76564q0.1875,-0.35936 0.51562,-0.59376q0.25,-0.17186 0.67188,-0.29686q0.42187,-0.125 0.92187,-0.125q0.71875,0 1.26563,0.21876q0.5625,0.2031 0.82812,0.5625q0.26562,0.35936 0.35938,0.9531l-1.03126,0.14064q-0.0625,-0.46874 -0.40624,-0.73438q-0.32813,-0.28126 -0.95313,-0.28126q-0.71875,0 -1.03125,0.25q-0.3125,0.2344 -0.3125,0.5625q0,0.20314 0.125,0.3594q0.14062,0.17186 0.40625,0.28124q0.15625,0.0625 0.9375,0.26562q1.125,0.3125 1.5625,0.5q0.4375,0.1875 0.6875,0.54688q0.25,0.35936 0.25,0.90626q0,0.53124 -0.3125,1q-0.29687,0.4531 -0.875,0.71874q-0.57813,0.25 -1.3125,0.25q-1.21875,0 -1.85937,-0.5q-0.625,-0.51564 -0.79688,-1.5zm10.48438,1.09376q-0.59376,0.5 -1.14063,0.7031q-0.53125,0.20314 -1.15625,0.20314q-1.03125,0 -1.57812,-0.5q-0.54688,-0.5 -0.54688,-1.28124q0,-0.45314 0.20312,-0.82814q0.20313,-0.39062 0.54688,-0.60936q0.34375,-0.2344 0.76562,-0.34376q0.29688,-0.09374 0.9375,-0.17188q1.26563,-0.14062 1.875,-0.35936q0,-0.21876 0,-0.26564q0,-0.65626 -0.29687,-0.92186q-0.40625,-0.34376 -1.20313,-0.34376q-0.73437,0 -1.09374,0.26562q-0.35938,0.25 -0.53126,0.90624l-1.03124,-0.1406q0.14062,-0.65626 0.46874,-1.0625q0.32813,-0.40626 0.9375,-0.625q0.60938,-0.21876 1.40626,-0.21876q0.79687,0 1.29687,0.1875q0.5,0.1875 0.73437,0.46876q0.23438,0.28124 0.32813,0.71874q0.04687,0.26562 0.04687,0.96876l0,1.40624q0,1.46876 0.0625,1.85936q0.07813,0.39064 0.28126,0.75l-1.10938,0q-0.15625,-0.3281 -0.20312,-0.7656zm-0.09376,-2.3594q-0.57812,0.2344 -1.71874,0.40626q-0.65626,0.09374 -0.92188,0.21874q-0.26562,0.1094 -0.42188,0.32814q-0.14062,0.21876 -0.14062,0.5q0,0.42186 0.3125,0.70312q0.32812,0.28124 0.9375,0.28124q0.60938,0 1.07812,-0.2656q0.48438,-0.26564 0.70313,-0.7344q0.17187,-0.35936 0.17187,-1.04686l0,-0.39064zm7.09376,0.84376l1.03124,0.14064q-0.17187,1.0625 -0.875,1.67186q-0.70312,0.60938 -1.71874,0.60938q-1.28126,0 -2.0625,-0.82814q-0.76563,-0.84374 -0.76563,-2.40624q0,-1 0.32813,-1.75q0.34374,-0.76562 1.01562,-1.14062q0.6875,-0.375 1.5,-0.375q1,0 1.64062,0.51562q0.65626,0.5 0.84376,1.45314l-1.03126,0.15624q-0.14062,-0.625 -0.51562,-0.9375q-0.375,-0.32814 -0.90625,-0.32814q-0.79687,0 -1.29687,0.57814q-0.5,0.5625 -0.5,1.79686q0,1.26564 0.48437,1.82814q0.48437,0.5625 1.25,0.5625q0.625,0 1.03125,-0.375q0.42188,-0.375 0.54688,-1.17188zm4.23437,1.34374l0.15625,0.9219q-0.45312,0.09374 -0.79688,0.09374q-0.57812,0 -0.89062,-0.17188q-0.3125,-0.1875 -0.45312,-0.48436q-0.125,-0.2969 -0.125,-1.25l0,-3.57814l-0.76563,0l0,-0.8125l0.76563,0l0,-1.54686l1.04687,-0.625l0,2.17186l1.0625,0l0,0.8125l-1.0625,0l0,3.64064q0,0.4531 0.04687,0.5781q0.0625,0.125 0.1875,0.20314q0.125,0.07812 0.35938,0.07812q0.1875,0 0.46875,-0.03126zm0.70313,-6.4375l0,-1.21874l1.0625,0l0,1.21874l-1.0625,0zm0,7.375l0,-6.21874l1.0625,0l0,6.21874l-1.0625,0zm2.60937,-3.10936q0,-1.73438 0.95313,-2.5625q0.79687,-0.6875 1.95312,-0.6875q1.28125,0 2.09375,0.84376q0.82813,0.8281 0.82813,2.3125q0,1.2031 -0.35938,1.8906q-0.35938,0.6875 -1.0625,1.07814q-0.6875,0.375 -1.5,0.375q-1.29688,0 -2.10938,-0.82814q-0.79687,-0.84374 -0.79687,-2.42186zm1.07813,0q0,1.1875 0.51562,1.78126q0.53125,0.59374 1.3125,0.59374q0.79688,0 1.3125,-0.59374q0.51562,-0.59376 0.51562,-1.8125q0,-1.15626 -0.53124,-1.75q-0.51563,-0.59376 -1.29688,-0.59376q-0.78125,0 -1.3125,0.59376q-0.51562,0.5781 -0.51562,1.78124zm6.3125,3.10936l0,-6.21874l0.9375,0l0,0.875q0.6875,-1.01562 1.98437,-1.01562q0.5625,0 1.03125,0.20312q0.48438,0.20314 0.71875,0.53124q0.23437,0.32814 0.32813,0.76564q0.04687,0.29686 0.04687,1.03126l0,3.8281l-1.04687,0l0,-3.78124q0,-0.65626 -0.125,-0.96876q-0.125,-0.3125 -0.4375,-0.5q-0.3125,-0.2031 -0.73438,-0.2031q-0.67188,0 -1.17188,0.4375q-0.48437,0.42186 -0.48437,1.60936l0,3.40624l-1.04687,0z" fill="#1a1a1a"/>
   <path id="svg_11" fill-rule="nonzero" d="m193.5,349.45c0,3.3137 -2.68628,6 -6,6c-3.31372,0 -6,-2.6863 -6,-6c0,-3.3137 2.68628,-6 6,-6c3.31372,0 6,2.6863 6,6z" fill="#fbbc04"/>
   <path id="svg_12" fill-rule="nonzero" d="m206.375,353.45l0,-0.92186q-0.73438,1.0625 -1.98438,1.0625q-0.54687,0 -1.03124,-0.20314q-0.46876,-0.21874 -0.70313,-0.53124q-0.23437,-0.32812 -0.32813,-0.79686q-0.0625,-0.2969 -0.0625,-0.9844l0,-3.84374l1.0625,0l0,3.45314q0,0.8125 0.0625,1.10936q0.09376,0.40624 0.40626,0.65624q0.32812,0.2344 0.8125,0.2344q0.46874,0 0.875,-0.2344q0.42187,-0.25 0.59374,-0.67186q0.1875,-0.42188 0.1875,-1.21874l0,-3.32814l1.04688,0l0,6.21874l-0.9375,0zm2.92188,2.39064l0,-8.60938l0.95312,0l0,0.79688q0.34375,-0.46874 0.76562,-0.70314q0.4375,-0.23436 1.04688,-0.23436q0.79688,0 1.40625,0.40626q0.60937,0.40624 0.90625,1.15624q0.3125,0.75 0.3125,1.64062q0,0.95314 -0.34375,1.71874q-0.32813,0.76564 -0.98437,1.1719q-0.65626,0.40624 -1.375,0.40624q-0.53126,0 -0.95313,-0.21874q-0.42187,-0.2344 -0.6875,-0.5625l0,3.03124l-1.04687,0zm0.95312,-5.46874q0,1.2031 0.48438,1.78124q0.48437,0.5625 1.17187,0.5625q0.70313,0 1.20313,-0.59374q0.5,-0.59376 0.5,-1.84376q0,-1.1875 -0.48438,-1.76564q-0.48438,-0.59374 -1.17188,-0.59374q-0.67187,0 -1.1875,0.625q-0.51562,0.625 -0.51562,1.82814zm10.07812,3.0781l0,-0.78124q-0.59374,0.92188 -1.73437,0.92188q-0.75,0 -1.375,-0.40624q-0.625,-0.4219 -0.96875,-1.15626q-0.34375,-0.73438 -0.34375,-1.6875q0,-0.92188 0.3125,-1.6875q0.3125,-0.76564 0.9375,-1.15624q0.625,-0.40626 1.39063,-0.40626q0.5625,0 1,0.23436q0.4375,0.2344 0.71874,0.6094l0,-3.07814l1.04688,0l0,8.59374l-0.98438,0zm-3.32812,-3.10936q0,1.20312 0.5,1.79686q0.5,0.57814 1.1875,0.57814q0.6875,0 1.17188,-0.5625q0.48437,-0.5625 0.48437,-1.71874q0,-1.28126 -0.5,-1.875q-0.48437,-0.59376 -1.20313,-0.59376q-0.70312,0 -1.17187,0.57812q-0.46875,0.5625 -0.46875,1.79688zm10.35938,2.34376q-0.59376,0.5 -1.14063,0.7031q-0.53125,0.20314 -1.15625,0.20314q-1.03125,0 -1.57812,-0.5q-0.54688,-0.5 -0.54688,-1.28124q0,-0.45314 0.20312,-0.82814q0.20313,-0.39062 0.54688,-0.60936q0.34375,-0.2344 0.76562,-0.34376q0.29688,-0.09374 0.9375,-0.17188q1.26563,-0.14062 1.875,-0.35936q0,-0.21876 0,-0.26564q0,-0.65626 -0.29687,-0.92186q-0.40625,-0.34376 -1.20313,-0.34376q-0.73437,0 -1.09374,0.26562q-0.35938,0.25 -0.53126,0.90624l-1.03124,-0.1406q0.14062,-0.65626 0.46874,-1.0625q0.32813,-0.40626 0.9375,-0.625q0.60938,-0.21876 1.40626,-0.21876q0.79687,0 1.29687,0.1875q0.5,0.1875 0.73437,0.46876q0.23438,0.28124 0.32813,0.71874q0.04687,0.26562 0.04687,0.96876l0,1.40624q0,1.46876 0.0625,1.85936q0.07813,0.39064 0.28126,0.75l-1.10938,0q-0.15625,-0.3281 -0.20312,-0.7656zm-0.09376,-2.3594q-0.57812,0.2344 -1.71874,0.40626q-0.65626,0.09374 -0.92188,0.21874q-0.26562,0.1094 -0.42188,0.32814q-0.14062,0.21876 -0.14062,0.5q0,0.42186 0.3125,0.70312q0.32812,0.28124 0.9375,0.28124q0.60938,0 1.07812,-0.2656q0.48438,-0.26564 0.70313,-0.7344q0.17187,-0.35936 0.17187,-1.04686l0,-0.39064zm5.32813,2.1875l0.15625,0.9219q-0.45312,0.09374 -0.79688,0.09374q-0.57812,0 -0.89062,-0.17188q-0.3125,-0.1875 -0.45312,-0.48436q-0.125,-0.2969 -0.125,-1.25l0,-3.57814l-0.76563,0l0,-0.8125l0.76563,0l0,-1.54686l1.04687,-0.625l0,2.17186l1.0625,0l0,0.8125l-1.0625,0l0,3.64064q0,0.4531 0.04687,0.5781q0.0625,0.125 0.1875,0.20314q0.125,0.07812 0.35938,0.07812q0.1875,0 0.46875,-0.03126zm4.95313,-1.0625l1.09374,0.125q-0.25,0.95314 -0.95312,1.4844q-0.70312,0.53124 -1.78125,0.53124q-1.35937,0 -2.17187,-0.84374q-0.79688,-0.84376 -0.79688,-2.3594q0,-1.5625 0.8125,-2.42186q0.8125,-0.875 2.09375,-0.875q1.25,0 2.03125,0.84376q0.79688,0.84374 0.79688,2.3906q0,0.09376 0,0.28126l-4.64063,0q0.0625,1.03124 0.57813,1.57814q0.51562,0.53124 1.29687,0.53124q0.57813,0 0.98437,-0.29688q0.42188,-0.3125 0.65626,-0.96876zm-3.45313,-1.7031l3.46875,0q-0.0625,-0.7969 -0.39062,-1.1875q-0.51563,-0.6094 -1.3125,-0.6094q-0.73438,0 -1.23438,0.4844q-0.48438,0.48436 -0.53125,1.3125z" fill="#1a1a1a"/>
   <path id="svg_13" fill-rule="nonzero" d="m267.5,349.45c0,3.3137 -2.68628,6 -6,6c-3.31372,0 -6,-2.6863 -6,-6c0,-3.3137 2.68628,-6 6,-6c3.31372,0 6,2.6863 6,6z" fill="#34a853"/>
   <path id="svg_14" fill-rule="nonzero" d="m275.90625,350.34064q0,-1.73438 0.95313,-2.5625q0.79687,-0.6875 1.95312,-0.6875q1.28125,0 2.09375,0.84376q0.82813,0.8281 0.82813,2.3125q0,1.2031 -0.35938,1.8906q-0.35938,0.6875 -1.0625,1.07814q-0.6875,0.375 -1.5,0.375q-1.29688,0 -2.10938,-0.82814q-0.79687,-0.84374 -0.79687,-2.42186zm1.07813,0q0,1.1875 0.51562,1.78126q0.53125,0.59374 1.3125,0.59374q0.79688,0 1.3125,-0.59374q0.51562,-0.59376 0.51562,-1.8125q0,-1.15626 -0.53124,-1.75q-0.51563,-0.59376 -1.29688,-0.59376q-0.78125,0 -1.3125,0.59376q-0.51562,0.5781 -0.51562,1.78124zm8.60937,2.17186l0.15625,0.9219q-0.45312,0.09374 -0.79688,0.09374q-0.57812,0 -0.89062,-0.17188q-0.3125,-0.1875 -0.45312,-0.48436q-0.125,-0.2969 -0.125,-1.25l0,-3.57814l-0.76563,0l0,-0.8125l0.76563,0l0,-1.54686l1.04687,-0.625l0,2.17186l1.0625,0l0,0.8125l-1.0625,0l0,3.64064q0,0.4531 0.04687,0.5781q0.0625,0.125 0.1875,0.20314q0.125,0.07812 0.35938,0.07812q0.1875,0 0.46875,-0.03126zm0.70313,3.32814l0,-8.60938l0.95312,0l0,0.79688q0.34375,-0.46874 0.76562,-0.70314q0.4375,-0.23436 1.04688,-0.23436q0.79688,0 1.40625,0.40626q0.60937,0.40624 0.90625,1.15624q0.3125,0.75 0.3125,1.64062q0,0.95314 -0.34375,1.71874q-0.32813,0.76564 -0.98437,1.1719q-0.65626,0.40624 -1.375,0.40624q-0.53126,0 -0.95313,-0.21874q-0.42187,-0.2344 -0.6875,-0.5625l0,3.03124l-1.04687,0zm0.95312,-5.46874q0,1.2031 0.48438,1.78124q0.48437,0.5625 1.17187,0.5625q0.70313,0 1.20313,-0.59374q0.5,-0.59376 0.5,-1.84376q0,-1.1875 -0.48438,-1.76564q-0.48438,-0.59374 -1.17188,-0.59374q-0.67187,0 -1.1875,0.625q-0.51562,0.625 -0.51562,1.82814z" fill="#1a1a1a"/>
   <path id="svg_15" fill-rule="nonzero" d="m320.5,349.45c0,3.3137 -2.68628,6 -6,6c-3.31372,0 -6,-2.6863 -6,-6c0,-3.3137 2.68628,-6 6,-6c3.31372,0 6,2.6863 6,6z" fill="#ff6d01"/>
   <path id="svg_16" fill-rule="nonzero" d="m328.875,351.59064l1.03125,-0.15624q0.09375,0.625 0.48437,0.9531q0.40626,0.32814 1.14063,0.32814q0.71875,0 1.0625,-0.28124q0.35937,-0.2969 0.35937,-0.70314q0,-0.35936 -0.3125,-0.5625q-0.21874,-0.14062 -1.07812,-0.35936q-1.15625,-0.2969 -1.60938,-0.5q-0.4375,-0.21876 -0.67187,-0.59376q-0.23437,-0.375 -0.23437,-0.84374q0,-0.40626 0.1875,-0.76564q0.1875,-0.35936 0.51562,-0.59376q0.25,-0.17186 0.67188,-0.29686q0.42187,-0.125 0.92187,-0.125q0.71875,0 1.26563,0.21876q0.5625,0.2031 0.82812,0.5625q0.26562,0.35936 0.35938,0.9531l-1.03126,0.14064q-0.0625,-0.46874 -0.40624,-0.73438q-0.32813,-0.28126 -0.95313,-0.28126q-0.71875,0 -1.03125,0.25q-0.3125,0.2344 -0.3125,0.5625q0,0.20314 0.125,0.3594q0.14062,0.17186 0.40625,0.28124q0.15625,0.0625 0.9375,0.26562q1.125,0.3125 1.5625,0.5q0.4375,0.1875 0.6875,0.54688q0.25,0.35936 0.25,0.90626q0,0.53124 -0.3125,1q-0.29687,0.4531 -0.875,0.71874q-0.57813,0.25 -1.3125,0.25q-1.21875,0 -1.85937,-0.5q-0.625,-0.51564 -0.79688,-1.5zm6.42188,1.85936l0,-8.59374l1.0625,0l0,4.90624l2.48437,-2.53124l1.375,0l-2.39063,2.29688l2.625,3.92186l-1.29687,0l-2.0625,-3.1875l-0.73437,0.71876l0,2.46874l-1.0625,0zm6,-7.375l0,-1.21874l1.0625,0l0,1.21874l-1.0625,0zm0,7.375l0,-6.21874l1.0625,0l0,6.21874l-1.0625,0zm3,2.39064l0,-8.60938l0.95312,0l0,0.79688q0.34375,-0.46874 0.76562,-0.70314q0.4375,-0.23436 1.04688,-0.23436q0.79688,0 1.40625,0.40626q0.60937,0.40624 0.90625,1.15624q0.3125,0.75 0.3125,1.64062q0,0.95314 -0.34375,1.71874q-0.32813,0.76564 -0.98437,1.1719q-0.65626,0.40624 -1.375,0.40624q-0.53126,0 -0.95313,-0.21874q-0.42187,-0.2344 -0.6875,-0.5625l0,3.03124l-1.04687,0zm0.95312,-5.46874q0,1.2031 0.48438,1.78124q0.48437,0.5625 1.17187,0.5625q0.70313,0 1.20313,-0.59374q0.5,-0.59376 0.5,-1.84376q0,-1.1875 -0.48438,-1.76564q-0.48438,-0.59374 -1.17188,-0.59374q-0.67187,0 -1.1875,0.625q-0.51562,0.625 -0.51562,1.82814z" fill="#1a1a1a"/>
  </g>
 </g>
</svg>