<svg width="460.72" height="460.719" xmlns="http://www.w3.org/2000/svg">
 <g>
  <title>background</title>
  <rect x="-1" y="-1" width="462.72" height="462.719" id="canvas_background" fill="none"/>
 </g>
 <defs>
  <filter height="200%" width="200%" y="-50%" x="-50%" id="svg_27_blur">
   <feGaussianBlur stdDeviation="1.1" in="SourceGraphic"/>
  </filter>
 </defs>
 <g>
  <title>Layer 1</title>
  <g id="svg_4"/>
  <g id="svg_5"/>
  <g id="svg_6"/>
  <g id="svg_7"/>
  <g id="svg_8"/>
  <g id="svg_9"/>
  <g id="svg_10"/>
  <g id="svg_11"/>
  <g id="svg_12"/>
  <g id="svg_13"/>
  <g id="svg_14"/>
  <g id="svg_15"/>
  <g id="svg_16"/>
  <g id="svg_17"/>
  <g id="svg_18"/>
  <g filter="url(#svg_27_blur)" id="svg_27">
   <g id="svg_26">
    <path fill="#000000" d="m442.856317,149.737006c-21.556,-2.48 -41.537,-3.737 -59.347,-3.737c-74.245,0 -98.029,21.416 -110.809,32.923l-2.052,1.833c-9.394,8.263 -25.03,9.521 -33.534,9.536l-7.2,0.008l-7.197,-0.008c-8.496,-0.014 -24.131,-1.272 -33.522,-9.536l-2.048,-1.833c-12.78,-11.507 -36.576,-32.923 -110.817,-32.923c-17.819,0 -37.784,1.256 -59.348,3.737c-10.093,1.162 -18.047,10.496 -17.38,20.377c1.713,25.235 10.652,87.354 56.609,119.093c20.065,13.854 42.731,21.176 65.551,21.176c46.907,0 81.904,-30.36 89.163,-77.332c0.104,-0.629 2.733,-15.362 18.089,-15.362l1.026,0.014l0.793,-0.014c15.356,0 17.977,14.733 18.085,15.339c7.262,46.995 42.258,77.355 89.161,77.355c22.822,0 45.484,-7.322 65.554,-21.176c45.953,-31.755 54.894,-93.857 56.608,-119.093c0.673,-9.881 -7.286,-19.222 -17.385,-20.377zm-310.652,140.745c-3.228,0.213 -6.344,0.305 -9.349,0.305c-25.626,0 -45.597,-7.313 -59.364,-21.772c-22.069,-23.15 -22.847,-58.853 -22.157,-73.125c0.118,-2.418 2.465,-5.714 4.751,-6.642c11.651,-4.757 34.989,-12.746 60.402,-12.746c10.361,0 20.079,1.356 28.879,4.042c36.53,11.146 52.121,27.198 52.121,53.699c0.008,28.572 -25.32,54.328 -55.283,56.239zm264.141,-21.468c-13.762,14.459 -33.734,21.772 -59.346,21.772c-3.006,0 -6.127,-0.092 -9.354,-0.305c-29.959,-1.911 -55.282,-27.667 -55.282,-56.24c0,-26.501 15.585,-42.561 52.125,-53.699c8.792,-2.685 18.514,-4.042 28.877,-4.042c25.415,0 48.751,7.989 60.396,12.746c2.284,0.936 4.641,4.224 4.753,6.65c0.686,14.265 -0.092,49.951 -22.169,73.118z" id="svg_25"/>
   </g>
  </g>
  <ellipse fill="#d600dd" stroke-width="1.5" cx="111.693299" cy="232.222292" id="svg_21" rx="79.777805" ry="77.555582" stroke="#000"/>
  <ellipse fill="#28fc52" stroke="#000" stroke-width="1.5" stroke-opacity="null" cx="347.381216" cy="231.276453" id="svg_23" rx="86.595695" ry="75.531871"/>
  <g filter="url(#svg_27_blur)" id="svg_31">
   <g id="svg_30">
    <path fill="#000000" d="m443.841539,154.170502c-21.556,-2.48 -41.537,-3.737 -59.347,-3.737c-74.245,0 -98.029,21.416 -110.809,32.923l-2.052,1.833c-9.394,8.263 -25.03,9.521 -33.534,9.536l-7.2,0.008l-7.197,-0.008c-8.496,-0.014 -24.131,-1.272 -33.522,-9.536l-2.048,-1.833c-12.78,-11.507 -36.576,-32.923 -110.817,-32.923c-17.819,0 -37.784,1.256 -59.348,3.737c-10.093,1.162 -18.047,10.496 -17.38,20.377c1.713,25.235 10.652,87.354 56.609,119.093c20.065,13.854 42.731,21.176 65.551,21.176c46.907,0 81.904,-30.36 89.163,-77.332c0.104,-0.629 2.733,-15.362 18.089,-15.362l1.026,0.014l0.793,-0.014c15.356,0 17.977,14.733 18.085,15.339c7.262,46.995 42.258,77.355 89.161,77.355c22.822,0 45.484,-7.322 65.554,-21.176c45.953,-31.755 54.894,-93.857 56.608,-119.093c0.673,-9.881 -7.286,-19.222 -17.385,-20.377zm-310.652,140.745c-3.228,0.213 -6.344,0.305 -9.349,0.305c-25.626,0 -45.597,-7.313 -59.364,-21.772c-22.069,-23.15 -22.847,-58.853 -22.157,-73.125c0.118,-2.418 2.465,-5.714 4.751,-6.642c11.651,-4.757 34.989,-12.746 60.402,-12.746c10.361,0 20.079,1.356 28.879,4.042c36.53,11.146 52.121,27.198 52.121,53.699c0.008,28.572 -25.32,54.328 -55.283,56.239zm264.141,-21.468c-13.762,14.459 -33.734,21.772 -59.346,21.772c-3.006,0 -6.127,-0.092 -9.354,-0.305c-29.959,-1.911 -55.282,-27.667 -55.282,-56.24c0,-26.501 15.585,-42.561 52.125,-53.699c8.792,-2.685 18.514,-4.042 28.877,-4.042c25.415,0 48.751,7.989 60.396,12.746c2.284,0.936 4.641,4.224 4.753,6.65c0.686,14.265 -0.092,49.951 -22.169,73.118z" id="svg_29"/>
   </g>
  </g>
  <g id="svg_1">
   <g id="svg_2">
    <path fill="#1c1c1c" d="m443.293,151.905c-21.556,-2.48 -41.537,-3.737 -59.347,-3.737c-74.245,0 -98.029,21.416 -110.809,32.923l-2.052,1.833c-9.394,8.263 -25.03,9.521 -33.534,9.536l-7.2,0.008l-7.197,-0.008c-8.496,-0.014 -24.131,-1.272 -33.522,-9.536l-2.048,-1.833c-12.78,-11.507 -36.576,-32.923 -110.817,-32.923c-17.819,0 -37.784,1.256 -59.348,3.737c-10.093,1.162 -18.047,10.496 -17.38,20.377c1.713,25.235 10.652,87.354 56.609,119.093c20.065,13.854 42.731,21.176 65.551,21.176c46.907,0 81.904,-30.36 89.163,-77.332c0.104,-0.629 2.733,-15.362 18.089,-15.362l1.026,0.014l0.793,-0.014c15.356,0 17.977,14.733 18.085,15.339c7.262,46.995 42.258,77.355 89.161,77.355c22.822,0 45.484,-7.322 65.554,-21.176c45.953,-31.755 54.894,-93.857 56.608,-119.093c0.673,-9.881 -7.286,-19.222 -17.385,-20.377zm-310.652,140.745c-3.228,0.213 -6.344,0.305 -9.349,0.305c-25.626,0 -45.597,-7.313 -59.364,-21.772c-22.069,-23.15 -22.847,-58.853 -22.157,-73.125c0.118,-2.418 2.465,-5.714 4.751,-6.642c11.651,-4.757 34.989,-12.746 60.402,-12.746c10.361,0 20.079,1.356 28.879,4.042c36.53,11.146 52.121,27.198 52.121,53.699c0.008,28.572 -25.32,54.328 -55.283,56.239zm264.141,-21.468c-13.762,14.459 -33.734,21.772 -59.346,21.772c-3.006,0 -6.127,-0.092 -9.354,-0.305c-29.959,-1.911 -55.282,-27.667 -55.282,-56.24c0,-26.501 15.585,-42.561 52.125,-53.699c8.792,-2.685 18.514,-4.042 28.877,-4.042c25.415,0 48.751,7.989 60.396,12.746c2.284,0.936 4.641,4.224 4.753,6.65c0.686,14.265 -0.092,49.951 -22.169,73.118z" id="svg_3"/>
   </g>
  </g>
 </g>
</svg>